<?xml version="1.0" standalone="no"?>
<!DOCTYPE svg PUBLIC "-//W3C//DTD SVG 20010904//EN"
 "http://www.w3.org/TR/2001/REC-SVG-20010904/DTD/svg10.dtd">
<svg version="1.0" xmlns="http://www.w3.org/2000/svg"
 width="386.000000pt" height="128.000000pt" viewBox="0 0 386.000000 128.000000"
 preserveAspectRatio="xMidYMid meet">

<g transform="translate(0.000000,128.000000) scale(0.100000,-0.100000)"
fill="#000000" stroke="none">
<path d="M282 798 c66 -150 123 -277 128 -281 4 -5 26 36 49 90 l41 98 -81
183 -82 182 -87 0 -88 0 120 -272z"/>
<path d="M761 832 c-190 -430 -223 -490 -284 -518 -30 -14 -27 -15 64 -11 111
5 149 21 192 84 21 31 307 663 307 679 0 2 -39 4 -87 4 l-88 0 -104 -238z"/>
<path d="M1895 866 c-132 -59 -142 -276 -14 -344 56 -30 153 -28 196 4 85 63
107 190 50 276 -44 66 -157 97 -232 64z m156 -74 c27 -24 33 -37 37 -85 8
-101 -30 -147 -121 -147 -57 0 -91 26 -107 84 -13 47 -7 98 16 131 37 53 125
61 175 17z"/>
<path d="M2760 867 c-18 -9 -43 -55 -96 -177 -40 -91 -73 -168 -73 -172 -1 -5
14 -8 32 -8 29 0 34 5 50 45 l19 45 89 0 89 0 22 -45 c18 -37 27 -45 50 -45
15 0 28 3 28 6 0 8 -109 262 -131 306 -24 47 -47 61 -79 45z m83 -209 c-6 -11
-123 -10 -123 1 0 4 14 41 32 80 l31 72 32 -73 c18 -40 30 -76 28 -80z"/>
<path d="M3095 867 c-124 -58 -142 -260 -30 -336 51 -34 123 -39 175 -12 33
17 40 18 40 6 0 -10 10 -15 30 -15 l30 0 0 95 0 95 -85 0 c-84 0 -85 0 -85
-25 0 -24 3 -25 55 -25 46 0 55 -3 55 -17 -1 -42 -49 -73 -113 -73 -40 0 -54
5 -77 28 -50 51 -50 162 1 207 12 11 41 20 74 23 50 4 56 2 85 -27 21 -21 41
-31 61 -31 33 0 34 1 14 40 -32 62 -159 99 -230 67z"/>
<path d="M1424 733 c89 -196 103 -221 127 -228 42 -14 69 24 146 194 40 89 73
165 73 167 0 3 -16 4 -36 2 l-37 -3 -61 -135 c-34 -74 -66 -134 -71 -133 -5 0
-37 61 -70 135 -61 133 -62 133 -98 136 l-36 3 63 -138z"/>
<path d="M2220 690 l0 -180 35 0 34 0 3 127 3 126 84 -126 c83 -126 84 -127
122 -127 l39 0 0 180 0 180 -30 0 -29 0 -3 -132 -3 -133 -88 133 -88 132 -39
0 -40 0 0 -180z"/>
<path d="M3420 690 l0 -180 130 0 130 0 0 25 0 25 -100 0 -100 0 0 50 0 50 90
0 90 0 0 30 0 30 -90 0 -90 0 0 45 0 45 100 0 100 0 0 30 0 30 -130 0 -130 0
0 -180z"/>
<path d="M2647 313 c-4 -3 -7 -14 -7 -24 0 -9 -6 -20 -12 -23 -10 -5 -10 -7 0
-12 7 -3 12 -25 12 -55 0 -27 5 -49 10 -49 6 0 10 23 10 50 0 38 4 50 15 50 8
0 15 5 15 10 0 6 -7 10 -15 10 -21 0 -19 38 3 43 14 4 13 5 -4 6 -11 0 -24 -2
-27 -6z"/>
<path d="M3010 305 c0 -8 5 -15 10 -15 6 0 10 7 10 15 0 8 -4 15 -10 15 -5 0
-10 -7 -10 -15z"/>
<path d="M1970 230 c0 -47 4 -80 10 -80 6 0 10 14 10 30 0 26 4 30 28 30 37 0
72 26 72 54 0 34 -19 46 -72 46 l-48 0 0 -80z m88 61 c8 -4 12 -19 10 -32 -2
-20 -10 -25 -40 -27 -37 -3 -38 -3 -38 32 0 33 3 36 28 36 15 0 33 -4 40 -9z"/>
<path d="M2780 230 l0 -80 53 2 c50 1 50 2 10 5 -41 4 -43 5 -43 38 0 32 2 34
38 38 l37 4 -37 1 c-35 2 -38 4 -38 31 0 28 3 30 43 34 40 3 40 4 -10 5 l-53
2 0 -80z"/>
<path d="M2361 288 c0 -10 -8 -18 -16 -18 -8 0 -15 -4 -15 -10 0 -5 7 -10 15
-10 11 0 15 -12 15 -50 0 -48 1 -50 28 -49 26 0 26 1 5 9 -19 8 -23 17 -23 50
0 29 4 40 15 40 8 0 15 5 15 10 0 6 -6 10 -14 10 -8 0 -17 8 -19 18 -4 16 -5
16 -6 0z"/>
<path d="M2119 254 c-12 -15 -11 -16 11 -9 14 4 27 7 30 7 43 1 37 -21 -10
-36 -28 -9 -35 -16 -35 -36 0 -23 4 -25 48 -26 l47 -2 0 47 c0 26 -5 52 -12
59 -17 17 -63 15 -79 -4z m71 -59 c0 -9 -12 -21 -26 -27 -21 -10 -27 -9 -34 2
-10 17 -3 26 25 33 33 8 35 8 35 -8z"/>
<path d="M2251 205 l1 -60 9 43 c10 51 16 62 35 62 8 0 14 4 14 10 0 5 -13 8
-30 7 -30 -2 -30 -2 -29 -62z"/>
<path d="M2507 252 c-35 -39 -11 -102 38 -102 47 0 72 71 37 103 -24 22 -55
21 -75 -1z m73 -41 c0 -36 -25 -59 -48 -44 -24 14 -28 64 -6 80 25 18 54 -1
54 -36z"/>
<path d="M2921 205 l1 -60 9 43 c10 51 16 62 35 62 8 0 14 4 14 10 0 5 -13 8
-30 7 -30 -2 -30 -2 -29 -62z"/>
<path d="M3010 210 c0 -33 4 -60 10 -60 6 0 10 27 10 60 0 33 -4 60 -10 60 -6
0 -10 -27 -10 -60z"/>
<path d="M3076 248 c-20 -29 -20 -62 0 -82 20 -20 58 -21 74 -1 15 18 9 19
-25 3 -22 -10 -28 -9 -36 3 -28 45 11 108 46 73 20 -20 33 -11 15 11 -18 22
-56 18 -74 -7z"/>
<path d="M3200 255 c-18 -21 -8 -37 30 -50 41 -14 49 -31 20 -40 -14 -4 -28
-1 -41 11 -10 9 -19 12 -19 7 0 -19 28 -34 57 -31 22 2 28 8 28 28 0 19 -7 26
-32 34 -18 5 -33 15 -33 21 0 17 31 28 44 15 16 -16 30 -12 16 5 -16 19 -54
19 -70 0z"/>
<path d="M3320 255 c-18 -21 -8 -37 30 -50 41 -14 49 -31 20 -40 -14 -4 -28
-1 -41 11 -10 9 -19 12 -19 7 0 -19 28 -34 57 -31 22 2 28 8 28 28 0 20 -7 27
-32 35 -18 5 -33 14 -33 21 0 18 31 26 47 13 7 -7 17 -9 20 -5 10 10 -17 26
-43 26 -12 0 -27 -7 -34 -15z"/>
<path d="M3446 248 c-21 -30 -20 -61 2 -81 39 -35 92 -10 92 42 0 55 -65 81
-94 39z m62 0 c7 -7 12 -27 12 -44 0 -37 -30 -55 -55 -34 -21 17 -19 67 3 79
22 13 26 13 40 -1z"/>
<path d="M3582 205 c1 -56 2 -57 5 -13 3 36 9 51 25 59 28 15 41 0 49 -59 l6
-47 2 57 c1 62 -6 68 -66 65 -21 -1 -23 -6 -21 -62z"/>
</g>
</svg>
